HIERARCHY
ROOT Hips
{
	OFFSET 0.000000 0.000000 0.000000
	CHANNELS 6 Xposition Yposition Zposition Xrotation Yrotation Zrotation
	JOINT LeftUpLeg_virtual
	{
		OFFSET 0.000000 0.000000 0.000000
		CHANNELS 3 Xrotation Yrotation Zrotation
		JOINT LeftUpLeg
		{
			OFFSET 15.427100 -6.655098 0.678600
			CHANNELS 3 Xrotation Yrotation Zrotation
			JOINT LeftLeg
			{
				OFFSET 4.081073 -39.591068 13.024000
				CHANNELS 3 Xrotation Yrotation Zrotation
				JOINT LeftFoot
				{
					OFFSET -4.081074 -37.707932 -15.979700
					CHANNELS 3 Xrotation Yrotation Zrotation
					JOINT LeftToeBase
					{
						OFFSET 5.346399 -15.068900 20.645000
						CHANNELS 3 Xrotation Yrotation Zrotation
						JOINT LeftToe_End
						{
							OFFSET 2.754700 0.931300 11.300900
							CHANNELS 3 Xrotation Yrotation Zrotation
							End Site
							{
								OFFSET 0 0 0
							}
						}
					}
				}
			}
		}
	}
	JOINT RightUpLeg_virtual
	{
		OFFSET 0.000000 0.000000 0.000000
		CHANNELS 3 Xrotation Yrotation Zrotation
		JOINT RightUpLeg
		{
			OFFSET -15.569500 -6.655098 0.678600
			CHANNELS 3 Xrotation Yrotation Zrotation
			JOINT RightLeg
			{
				OFFSET -4.081825 -39.591045 13.023800
				CHANNELS 3 Xrotation Yrotation Zrotation
				JOINT RightFoot
				{
					OFFSET 4.081824 -37.707954 -15.979600
					CHANNELS 3 Xrotation Yrotation Zrotation
					JOINT RightToeBase
					{
						OFFSET -5.346400 -15.068900 20.645000
						CHANNELS 3 Xrotation Yrotation Zrotation
						JOINT RightToe_End
						{
							OFFSET -2.754700 0.931300 11.300900
							CHANNELS 3 Xrotation Yrotation Zrotation
							End Site
							{
								OFFSET 0 0 0
							}
						}
					}
				}
			}
		}
	}
	JOINT Spine_virtual
	{
		OFFSET 0.000000 0.000000 0.000000
		CHANNELS 3 Xrotation Yrotation Zrotation
		JOINT Spine
		{
			OFFSET -0.279200 12.230698 -2.892100
			CHANNELS 3 Xrotation Yrotation Zrotation
			JOINT Spine1
			{
				OFFSET -0.232667 10.192268 -1.242267
				CHANNELS 3 Xrotation Yrotation Zrotation
				JOINT Spine1_split
				{
					OFFSET -0.232667 10.192268 -1.242267
					CHANNELS 3 Xrotation Yrotation Zrotation
					JOINT Spine2
					{
						OFFSET -0.232667 10.192268 -1.242267
						CHANNELS 3 Xrotation Yrotation Zrotation
						JOINT Neck_virtual
						{
							OFFSET 0.000000 0.000000 0.000000
							CHANNELS 3 Xrotation Yrotation Zrotation
							JOINT Neck
							{
								OFFSET -0.418800 17.814194 8.416900
								CHANNELS 3 Xrotation Yrotation Zrotation
								JOINT Head
								{
									OFFSET 0.000000 7.031097 3.806800
									CHANNELS 3 Xrotation Yrotation Zrotation
									JOINT HeadTop_End
									{
										OFFSET 0.000000 24.646606 12.978600
										CHANNELS 3 Xrotation Yrotation Zrotation
										End Site
										{
											OFFSET 0 0 0
										}
									}
								}
							}
						}
						JOINT LeftShoulder_virtual
						{
							OFFSET 0.000000 0.000000 0.000000
							CHANNELS 3 Xrotation Yrotation Zrotation
							JOINT LeftShoulder
							{
								OFFSET 8.476499 7.247704 -3.868750
								CHANNELS 3 Xrotation Yrotation Zrotation
								JOINT LeftShoulder_split
								{
									OFFSET 8.476499 7.247704 -3.868750
									CHANNELS 3 Xrotation Yrotation Zrotation
									JOINT LeftArm
									{
										OFFSET 9.308998 -2.777710 0.208600
										CHANNELS 3 Xrotation Yrotation Zrotation
										JOINT LeftForeArm
										{
											OFFSET 29.972298 0.000000 0.000000
											CHANNELS 3 Xrotation Yrotation Zrotation
											JOINT LeftHand
											{
												OFFSET 26.026505 0.000000 0.000000
												CHANNELS 3 Xrotation Yrotation Zrotation
												End Site
												{
													OFFSET 0 0 0
												}
											}
										}
									}
								}
							}
						}
						JOINT RightShoulder_virtual
						{
							OFFSET 0.000000 0.000000 0.000000
							CHANNELS 3 Xrotation Yrotation Zrotation
							JOINT RightShoulder
							{
								OFFSET -7.570500 7.247704 -3.868750
								CHANNELS 3 Xrotation Yrotation Zrotation
								JOINT RightShoulder_split
								{
									OFFSET -7.570500 7.247704 -3.868750
									CHANNELS 3 Xrotation Yrotation Zrotation
									JOINT RightArm
									{
										OFFSET -9.308998 -2.777710 0.208500
										CHANNELS 3 Xrotation Yrotation Zrotation
										JOINT RightForeArm
										{
											OFFSET -29.972300 0.000000 0.000000
											CHANNELS 3 Xrotation Yrotation Zrotation
											JOINT RightHand
											{
												OFFSET -26.026505 0.000000 0.000000
												CHANNELS 3 Xrotation Yrotation Zrotation
												End Site
												{
													OFFSET 0 0 0
												}
											}
										}
									}
								}
							}
						}
					}
				}
			}
		}
	}
}
MOTION
Frames: 11
Frame Time: 0.03333333
9.166921 85.982231 -6.366840 0.000000 0.000000 0.000000 9.571338 -31.646940 -16.153739 -27.769642 -7.108933 30.349351 37.587057 2.825064 9.548924 -11.041765 30.057436 -17.749131 -0.186617 -0.084215 -0.638224 0.000000 0.000000 0.000000 11.326332 -31.420837 -16.781391 -19.198651 2.644349 27.494836 10.982036 2.880824 10.861548 1.199730 12.619466 -4.445076 -2.486534 3.516344 -0.078979 0.000000 0.000000 0.000000 8.031702 -33.266450 -17.074597 17.078526 -5.177765 14.001567 14.053119 -0.537984 10.450277 1.564365 -1.233861 0.624561 0.000000 0.000000 0.000000 12.849908 -0.687370 9.437244 -9.103770 -6.065263 3.186728 36.757595 -14.507931 30.665135 0.000000 0.000000 0.000000 14.340409 -1.237099 9.642097 2.380401 -20.119644 -11.572323 0.946235 -1.236966 -0.417216 -35.519070 -27.339413 -57.113215 -0.933985 -15.023927 -1.470755 0.000000 0.000000 0.000000 12.365826 -1.069565 9.889401 2.465643 6.713013 11.480355 -4.677589 2.584922 -0.508313 0.487593 41.031043 26.839440 1.769439 22.872827 1.219895 0.000000 0.000000 0.000000 
9.023892 85.970520 -6.324032 0.000000 0.000000 0.000000 9.536346 -31.320536 -16.156059 -27.928760 -6.956458 30.517982 37.613708 2.763243 9.547935 -11.017150 29.763328 -17.758374 -0.128472 -0.081153 -0.633094 0.000000 0.000000 0.000000 11.277403 -31.029604 -16.787528 -19.196697 2.554627 27.488807 11.152059 2.857349 10.863636 1.129530 12.455889 -4.580431 -2.517797 3.502072 -0.113454 0.000000 0.000000 0.000000 7.993341 -32.885237 -17.082117 16.984278 -5.238654 14.156820 13.953195 -0.600062 10.505846 1.549089 -1.237273 0.620328 0.000000 0.000000 0.000000 12.758860 -0.725252 9.488472 -8.985421 -6.010972 3.223386 36.913539 -14.654376 30.679615 0.000000 0.000000 0.000000 14.220641 -1.270728 9.675223 2.357324 -20.147516 -11.690797 0.901716 -1.268421 -0.387268 -35.207542 -27.674805 -57.377933 -1.027179 -15.204361 -1.499518 0.000000 0.000000 0.000000 12.274334 -1.104542 9.930963 2.597791 6.939539 10.940084 -4.581460 2.651906 -0.579882 0.822954 40.777247 27.122420 1.749756 23.369713 1.142502 0.000000 0.000000 0.000000 
8.864275 85.972725 -6.268776 0.000000 0.000000 0.000000 9.488163 -30.888369 -16.142934 -28.069197 -6.852752 30.629594 37.587788 2.687155 9.568560 -10.946912 29.410385 -17.788934 -0.069632 -0.080774 -0.637277 0.000000 0.000000 0.000000 11.228986 -30.529074 -16.775132 -19.165702 2.513273 27.465301 11.309478 2.821315 10.835425 1.050860 12.228841 -4.737341 -2.530886 3.479654 -0.128419 0.000000 0.000000 0.000000 7.943955 -32.431719 -17.073265 16.879528 -5.295053 14.318533 13.846087 -0.660565 10.569433 1.528567 -1.249131 0.628650 0.000000 0.000000 0.000000 12.666924 -0.763239 9.548559 -8.878759 -5.973038 3.264033 37.067355 -14.819723 30.684403 0.000000 0.000000 0.000000 14.095084 -1.300345 9.717133 2.340078 -20.160323 -11.799063 0.867878 -1.299149 -0.368425 -34.808232 -27.953149 -57.634721 -1.128103 -15.392145 -1.530112 0.000000 0.000000 0.000000 12.178956 -1.139689 9.978316 2.740968 7.128043 10.394045 -4.482929 2.700200 -0.650198 1.164866 40.566105 27.404070 1.736695 23.880766 1.073675 0.000000 0.000000 0.000000 
8.690216 85.986885 -6.196461 0.000000 0.000000 0.000000 9.431621 -30.366591 -16.124678 -28.176019 -6.813859 30.690089 37.534116 2.621651 9.605281 -10.836063 29.044782 -17.854314 0.003212 -0.079646 -0.655088 0.000000 0.000000 0.000000 11.178002 -29.931040 -16.758033 -19.100814 2.520573 27.428117 11.445373 2.763141 10.788271 0.955564 11.934545 -4.952461 -2.468865 3.450393 -0.122401 0.000000 0.000000 0.000000 7.889120 -31.919007 -17.055419 16.762719 -5.350773 14.489635 13.731863 -0.720138 10.640677 1.503101 -1.266485 0.624334 0.000000 0.000000 0.000000 12.573424 -0.802347 9.618185 -8.787779 -5.951875 3.307601 37.229374 -14.995988 30.680318 0.000000 0.000000 0.000000 13.963839 -1.327082 9.768568 2.331562 -20.152680 -11.885212 0.846561 -1.328142 -0.365216 -34.335071 -28.180777 -57.883456 -1.231394 -15.579998 -1.559887 0.000000 0.000000 0.000000 12.081918 -1.175773 10.031369 2.895290 7.274260 9.838062 -4.397550 2.738232 -0.705593 1.502133 40.394873 27.685303 1.728018 24.397671 1.017625 0.000000 0.000000 0.000000 
8.504863 86.009033 -6.104168 0.000000 0.000000 0.000000 9.359567 -29.783648 -16.120300 -28.225425 -6.851723 30.701775 37.474857 2.597398 9.652039 -10.740934 28.729019 -17.937106 0.106632 -0.078386 -0.692380 0.000000 0.000000 0.000000 11.120012 -29.259038 -16.752528 -19.004013 2.562816 27.381684 11.580363 2.688072 10.743928 0.876410 11.587071 -5.218036 -2.365685 3.417314 -0.102740 0.000000 0.000000 0.000000 7.830481 -31.355493 -17.039077 16.639384 -5.410726 14.677674 13.609813 -0.780516 10.718790 1.464463 -1.305076 0.620643 0.000000 0.000000 0.000000 12.475940 -0.844217 9.697524 -8.710416 -5.949862 3.349786 37.409977 -15.176071 30.675100 0.000000 0.000000 0.000000 13.827911 -1.353509 9.828319 2.333214 -20.118512 -11.943566 0.831819 -1.349950 -0.387361 -33.804724 -28.362386 -58.123475 -1.327800 -15.764534 -1.583932 0.000000 0.000000 0.000000 11.985581 -1.213081 10.090790 3.060949 7.386835 9.272930 -4.327611 2.783716 -0.739343 1.805355 40.247839 27.993744 1.721217 24.888987 0.976403 0.000000 0.000000 0.000000 
8.312309 86.035980 -6.007584 0.000000 0.000000 0.000000 9.271720 -29.161657 -16.143094 -28.184622 -6.941682 30.680516 37.395521 2.634668 9.701739 -10.760953 28.496847 -17.988232 0.235262 -0.077423 -0.738406 0.000000 0.000000 0.000000 11.041734 -28.551348 -16.777330 -18.880974 2.609215 27.334041 11.710672 2.604080 10.720554 0.854913 11.205702 -5.494050 -2.303310 3.382008 -0.082555 0.000000 0.000000 0.000000 7.774790 -30.754484 -17.037419 16.516584 -5.478276 14.888638 13.481720 -0.843535 10.802564 1.440067 -1.349583 0.608639 0.000000 0.000000 0.000000 12.372025 -0.890676 9.786086 -8.646072 -5.965307 3.390763 37.616557 -15.348400 30.677156 0.000000 0.000000 0.000000 13.687811 -1.383272 9.894752 2.343943 -20.057668 -11.973573 0.836005 -1.374758 -0.422097 -33.239324 -28.504338 -58.351843 -1.406295 -15.923794 -1.598936 0.000000 0.000000 0.000000 11.891242 -1.252201 10.157313 3.235524 7.474416 8.707777 -4.277473 2.840999 -0.746991 2.041030 40.099726 28.363622 1.711832 25.342911 0.949043 0.000000 0.000000 0.000000 
8.119715 86.069839 -5.904182 0.000000 0.000000 0.000000 9.169427 -28.518736 -16.206717 -28.048146 -7.060670 30.650242 37.278261 2.712926 9.739324 -10.904085 28.329818 -18.019313 0.340882 -0.076319 -0.764615 0.000000 0.000000 0.000000 10.928431 -27.836412 -16.840332 -18.732323 2.633245 27.295331 11.815137 2.520652 10.732236 0.889705 10.820596 -5.730976 -2.340021 3.344804 -0.073651 0.000000 0.000000 0.000000 7.724760 -30.120738 -17.058280 16.400708 -5.556116 15.130249 13.347334 -0.909546 10.891199 1.416769 -1.410224 0.590358 0.000000 0.000000 0.000000 12.261657 -0.943076 9.881757 -8.587231 -5.995288 3.428000 37.847612 -15.505762 30.704508 0.000000 0.000000 0.000000 13.546184 -1.419497 9.966326 2.360094 -19.971415 -11.979529 0.860695 -1.378164 -0.467126 -32.665755 -28.615571 -58.570306 -1.459332 -16.032134 -1.602636 0.000000 0.000000 0.000000 11.796657 -1.294721 10.229881 3.414742 7.547934 8.155602 -4.248371 2.899381 -0.728730 2.176917 39.930287 28.818764 1.691760 25.759613 0.931931 0.000000 0.000000 0.000000 
7.931301 86.110855 -5.788719 0.000000 0.000000 0.000000 9.039125 -27.867073 -16.316241 -27.844958 -7.200105 30.629727 37.131692 2.810256 9.746272 -11.095005 28.171986 -18.050115 0.397032 -0.078327 -0.763224 0.000000 0.000000 0.000000 10.778099 -27.130937 -16.941033 -18.540118 2.629740 27.273890 11.876189 2.440680 10.781956 0.933343 10.452302 -5.925778 -2.453941 3.305858 -0.080529 0.000000 0.000000 0.000000 7.675489 -29.459924 -17.108908 16.298997 -5.648536 15.402836 13.209974 -0.978005 10.981878 1.389750 -1.455864 0.575729 0.000000 0.000000 0.000000 12.148291 -1.000699 9.981395 -8.531178 -6.033106 3.458847 38.097907 -15.641188 30.769302 0.000000 0.000000 0.000000 13.404933 -1.462839 10.039977 2.378098 -19.862976 -11.969752 0.902458 -1.355277 -0.506400 -32.112630 -28.706459 -58.779864 -1.486532 -16.080673 -1.595151 0.000000 0.000000 0.000000 11.702218 -1.341356 10.306029 3.592031 7.611434 7.629359 -4.226269 2.947042 -0.700393 2.193682 39.725200 29.365405 1.657955 26.147508 0.919286 0.000000 0.000000 0.000000 
7.753213 86.160034 -5.661087 0.000000 0.000000 0.000000 8.887150 -27.195822 -16.457216 -27.606289 -7.340465 30.627186 36.990761 2.916242 9.705213 -11.258881 27.969394 -18.065681 0.445556 -0.082091 -0.750957 0.000000 0.000000 0.000000 10.602075 -26.428203 -17.070412 -18.281556 2.596728 27.259831 11.896274 2.355176 10.868546 0.936516 10.098624 -6.115755 -2.553688 3.263756 -0.100325 0.000000 0.000000 0.000000 7.624340 -28.775485 -17.183349 16.215448 -5.757775 15.696116 13.074288 -1.045683 11.069220 1.360494 -1.523346 0.565269 0.000000 0.000000 0.000000 12.037824 -1.061488 10.079923 -8.468658 -6.070512 3.475600 38.365944 -15.746777 30.883998 0.000000 0.000000 0.000000 13.265016 -1.512312 10.109731 2.394030 -19.741642 -11.958621 0.946184 -1.292057 -0.526100 -31.592336 -28.788004 -58.978226 -1.494818 -16.070047 -1.582139 0.000000 0.000000 0.000000 11.606118 -1.391062 10.382097 3.758856 7.667209 7.144275 -4.202277 2.968449 -0.662738 2.072841 39.489306 30.014477 1.605331 26.527956 0.908755 0.000000 0.000000 0.000000 
7.581576 86.220840 -5.520901 0.000000 0.000000 0.000000 8.707625 -26.508101 -16.603411 -27.342180 -7.458983 30.624280 36.862790 3.047697 9.611345 -11.373251 27.680120 -18.026170 0.547205 -0.084746 -0.760766 0.000000 0.000000 0.000000 10.395903 -25.730118 -17.201184 -17.946882 2.544307 27.218379 11.897912 2.271416 10.995793 0.883366 9.751512 -6.306402 -2.580159 3.213967 -0.129749 0.000000 0.000000 0.000000 7.549088 -28.065661 -17.275847 16.154091 -5.886574 15.992058 12.944710 -1.109431 11.148255 1.331912 -1.598310 0.549147 0.000000 0.000000 0.000000 11.933599 -1.120833 10.171379 -8.392708 -6.097835 3.472278 38.651149 -15.817106 31.056102 0.000000 0.000000 0.000000 13.132136 -1.564324 10.168399 2.405573 -19.618416 -11.955033 0.985565 -1.199545 -0.521293 -31.103712 -28.863065 -59.155613 -1.492368 -16.013851 -1.567477 0.000000 0.000000 0.000000 11.513138 -1.439399 10.452332 3.909177 7.713062 6.711719 -4.172000 2.973283 -0.615780 1.821002 39.237698 30.765672 1.532878 26.896669 0.902510 0.000000 0.000000 0.000000 
7.404066 86.291267 -5.371510 0.000000 0.000000 0.000000 8.493613 -25.798060 -16.724195 -27.040768 -7.525435 30.599142 36.719316 3.216965 9.477839 -11.467667 27.267500 -17.926347 0.724133 -0.084115 -0.819988 0.000000 0.000000 0.000000 10.157399 -25.016956 -17.311743 -17.551780 2.486777 27.105975 11.912006 2.224901 11.161864 0.790989 9.408004 -6.456039 -2.596568 3.149711 -0.159945 0.000000 0.000000 0.000000 7.433635 -27.312811 -17.368184 16.115104 -6.031788 16.265658 12.828337 -1.163979 11.211231 1.318580 -1.685768 0.545954 0.000000 0.000000 0.000000 11.839949 -1.172509 10.247235 -8.306290 -6.108894 3.442115 38.952422 -15.844499 31.284613 0.000000 0.000000 0.000000 13.010510 -1.613428 10.209826 2.410292 -19.508166 -11.968409 1.001601 -1.098704 -0.508877 -30.631472 -28.935564 -59.292005 -1.489516 -15.927952 -1.558586 0.000000 0.000000 0.000000 11.427124 -1.480679 10.511678 4.039935 7.749055 6.341775 -4.133711 2.960875 -0.563144 1.453897 38.977916 31.631955 1.439729 27.225086 0.907447 0.000000 0.000000 0.000000 
